<mxfile host="app.diagrams.net" agent="Mozilla/5.0 (Windows NT 10.0; Win64; x64) AppleWebKit/537.36 (KHTML, like Gecko) Chrome/131.0.0.0 Safari/537.36" version="26.0.8">
  <diagram name="Page-1" id="rNbOL7AI6BfRsfb5HLrN">
    <mxGraphModel dx="1427" dy="318" grid="1" gridSize="10" guides="1" tooltips="1" connect="1" arrows="1" fold="1" page="1" pageScale="1" pageWidth="827" pageHeight="1169" math="0" shadow="0">
      <root>
        <mxCell id="0" />
        <mxCell id="1" parent="0" />
        <mxCell id="PQA-iqeKC8U9w4bmJD3V-1" value="ผู้ดูแลระบบ" style="rounded=0;whiteSpace=wrap;html=1;" vertex="1" parent="1">
          <mxGeometry x="-20" y="405" width="90" height="40" as="geometry" />
        </mxCell>
        <mxCell id="PQA-iqeKC8U9w4bmJD3V-3" value="1.1" style="swimlane;childLayout=stackLayout;horizontal=1;startSize=30;horizontalStack=0;rounded=1;fontSize=14;fontStyle=0;strokeWidth=2;resizeParent=0;resizeLast=1;shadow=0;dashed=0;align=center;arcSize=20;whiteSpace=wrap;html=1;swimlaneLine=1;glass=0;" vertex="1" parent="1">
          <mxGeometry x="309" y="120" width="190" height="120" as="geometry" />
        </mxCell>
        <mxCell id="PQA-iqeKC8U9w4bmJD3V-8" value="ตรวจสอบข้อมูลบริการ,คอร์ส,หมวดหมู่" style="text;html=1;align=center;verticalAlign=middle;resizable=0;points=[];autosize=1;strokeColor=none;fillColor=none;" vertex="1" parent="PQA-iqeKC8U9w4bmJD3V-3">
          <mxGeometry y="30" width="190" height="90" as="geometry" />
        </mxCell>
        <mxCell id="PQA-iqeKC8U9w4bmJD3V-9" value="1.2" style="swimlane;childLayout=stackLayout;horizontal=1;startSize=30;horizontalStack=0;rounded=1;fontSize=14;fontStyle=0;strokeWidth=2;resizeParent=0;resizeLast=1;shadow=0;dashed=0;align=center;arcSize=20;whiteSpace=wrap;html=1;swimlaneLine=1;glass=0;" vertex="1" parent="1">
          <mxGeometry x="310" y="280" width="189" height="120" as="geometry" />
        </mxCell>
        <mxCell id="PQA-iqeKC8U9w4bmJD3V-10" value="เพิ่มข้อมูลบริการ,คอร์ส,หมวดหมู่" style="text;html=1;align=center;verticalAlign=middle;resizable=0;points=[];autosize=1;strokeColor=none;fillColor=none;" vertex="1" parent="PQA-iqeKC8U9w4bmJD3V-9">
          <mxGeometry y="30" width="189" height="90" as="geometry" />
        </mxCell>
        <mxCell id="PQA-iqeKC8U9w4bmJD3V-11" value="1.3" style="swimlane;childLayout=stackLayout;horizontal=1;startSize=30;horizontalStack=0;rounded=1;fontSize=14;fontStyle=0;strokeWidth=2;resizeParent=0;resizeLast=1;shadow=0;dashed=0;align=center;arcSize=20;whiteSpace=wrap;html=1;swimlaneLine=1;glass=0;" vertex="1" parent="1">
          <mxGeometry x="310" y="440" width="189" height="120" as="geometry" />
        </mxCell>
        <mxCell id="PQA-iqeKC8U9w4bmJD3V-12" value="แก้ไขข้อมูลบริการ,คอร์ส,หมวดหมู่" style="text;html=1;align=center;verticalAlign=middle;resizable=0;points=[];autosize=1;strokeColor=none;fillColor=none;" vertex="1" parent="PQA-iqeKC8U9w4bmJD3V-11">
          <mxGeometry y="30" width="189" height="90" as="geometry" />
        </mxCell>
        <mxCell id="PQA-iqeKC8U9w4bmJD3V-13" value="1.4" style="swimlane;childLayout=stackLayout;horizontal=1;startSize=30;horizontalStack=0;rounded=1;fontSize=14;fontStyle=0;strokeWidth=2;resizeParent=0;resizeLast=1;shadow=0;dashed=0;align=center;arcSize=20;whiteSpace=wrap;html=1;swimlaneLine=1;glass=0;" vertex="1" parent="1">
          <mxGeometry x="310" y="600" width="189" height="120" as="geometry" />
        </mxCell>
        <mxCell id="PQA-iqeKC8U9w4bmJD3V-14" value="ลบข้อมูลบริการ,คอร์ส,หมวดหมู่" style="text;html=1;align=center;verticalAlign=middle;resizable=0;points=[];autosize=1;strokeColor=none;fillColor=none;" vertex="1" parent="PQA-iqeKC8U9w4bmJD3V-13">
          <mxGeometry y="30" width="189" height="90" as="geometry" />
        </mxCell>
        <mxCell id="PQA-iqeKC8U9w4bmJD3V-15" value="บริการ" style="shape=partialRectangle;whiteSpace=wrap;html=1;left=0;right=0;fillColor=none;" vertex="1" parent="1">
          <mxGeometry x="780" y="105" width="120" height="40" as="geometry" />
        </mxCell>
        <mxCell id="PQA-iqeKC8U9w4bmJD3V-16" value="D1" style="rounded=0;whiteSpace=wrap;html=1;" vertex="1" parent="1">
          <mxGeometry x="740" y="105" width="40" height="40" as="geometry" />
        </mxCell>
        <mxCell id="PQA-iqeKC8U9w4bmJD3V-17" value="คอร์ส" style="shape=partialRectangle;whiteSpace=wrap;html=1;left=0;right=0;fillColor=none;" vertex="1" parent="1">
          <mxGeometry x="780" y="160" width="120" height="40" as="geometry" />
        </mxCell>
        <mxCell id="PQA-iqeKC8U9w4bmJD3V-18" value="D2" style="rounded=0;whiteSpace=wrap;html=1;" vertex="1" parent="1">
          <mxGeometry x="740" y="160" width="40" height="40" as="geometry" />
        </mxCell>
        <mxCell id="PQA-iqeKC8U9w4bmJD3V-19" value="หมวดหมู่" style="shape=partialRectangle;whiteSpace=wrap;html=1;left=0;right=0;fillColor=none;" vertex="1" parent="1">
          <mxGeometry x="780" y="215" width="120" height="40" as="geometry" />
        </mxCell>
        <mxCell id="PQA-iqeKC8U9w4bmJD3V-20" value="D3" style="rounded=0;whiteSpace=wrap;html=1;" vertex="1" parent="1">
          <mxGeometry x="740" y="215" width="40" height="40" as="geometry" />
        </mxCell>
        <mxCell id="PQA-iqeKC8U9w4bmJD3V-21" value="" style="endArrow=classic;startArrow=classic;html=1;rounded=0;exitX=0.25;exitY=0;exitDx=0;exitDy=0;entryX=-0.002;entryY=0.445;entryDx=0;entryDy=0;entryPerimeter=0;" edge="1" parent="1" source="PQA-iqeKC8U9w4bmJD3V-1" target="PQA-iqeKC8U9w4bmJD3V-8">
          <mxGeometry width="50" height="50" relative="1" as="geometry">
            <mxPoint x="350" y="390" as="sourcePoint" />
            <mxPoint x="280" y="200" as="targetPoint" />
            <Array as="points">
              <mxPoint x="3" y="190" />
            </Array>
          </mxGeometry>
        </mxCell>
        <mxCell id="PQA-iqeKC8U9w4bmJD3V-22" value="" style="endArrow=classic;startArrow=classic;html=1;rounded=0;exitX=0.75;exitY=0;exitDx=0;exitDy=0;entryX=-0.014;entryY=0.448;entryDx=0;entryDy=0;entryPerimeter=0;" edge="1" parent="1" source="PQA-iqeKC8U9w4bmJD3V-1" target="PQA-iqeKC8U9w4bmJD3V-10">
          <mxGeometry width="50" height="50" relative="1" as="geometry">
            <mxPoint x="240" y="320" as="sourcePoint" />
            <mxPoint x="290" y="270" as="targetPoint" />
            <Array as="points">
              <mxPoint x="47" y="350" />
            </Array>
          </mxGeometry>
        </mxCell>
        <mxCell id="PQA-iqeKC8U9w4bmJD3V-23" value="" style="endArrow=classic;startArrow=classic;html=1;rounded=0;exitX=0.75;exitY=1;exitDx=0;exitDy=0;entryX=-0.014;entryY=0.47;entryDx=0;entryDy=0;entryPerimeter=0;" edge="1" parent="1" source="PQA-iqeKC8U9w4bmJD3V-1" target="PQA-iqeKC8U9w4bmJD3V-12">
          <mxGeometry width="50" height="50" relative="1" as="geometry">
            <mxPoint x="240" y="570" as="sourcePoint" />
            <mxPoint x="290" y="520" as="targetPoint" />
            <Array as="points">
              <mxPoint x="47" y="512" />
            </Array>
          </mxGeometry>
        </mxCell>
        <mxCell id="PQA-iqeKC8U9w4bmJD3V-24" value="" style="endArrow=classic;startArrow=classic;html=1;rounded=0;exitX=0.25;exitY=1;exitDx=0;exitDy=0;entryX=0.002;entryY=0.47;entryDx=0;entryDy=0;entryPerimeter=0;" edge="1" parent="1" source="PQA-iqeKC8U9w4bmJD3V-1" target="PQA-iqeKC8U9w4bmJD3V-14">
          <mxGeometry width="50" height="50" relative="1" as="geometry">
            <mxPoint x="240" y="480" as="sourcePoint" />
            <mxPoint x="310" y="660" as="targetPoint" />
            <Array as="points">
              <mxPoint x="3" y="670" />
            </Array>
          </mxGeometry>
        </mxCell>
        <mxCell id="PQA-iqeKC8U9w4bmJD3V-25" value="" style="endArrow=classic;startArrow=classic;html=1;rounded=0;entryX=0;entryY=0.5;entryDx=0;entryDy=0;exitX=1.006;exitY=0.111;exitDx=0;exitDy=0;exitPerimeter=0;" edge="1" parent="1" source="PQA-iqeKC8U9w4bmJD3V-8" target="PQA-iqeKC8U9w4bmJD3V-16">
          <mxGeometry width="50" height="50" relative="1" as="geometry">
            <mxPoint x="480" y="220" as="sourcePoint" />
            <mxPoint x="530" y="170" as="targetPoint" />
            <Array as="points">
              <mxPoint x="540" y="160" />
              <mxPoint x="540" y="125" />
            </Array>
          </mxGeometry>
        </mxCell>
        <mxCell id="PQA-iqeKC8U9w4bmJD3V-26" value="" style="endArrow=classic;startArrow=classic;html=1;rounded=0;entryX=0;entryY=0.5;entryDx=0;entryDy=0;" edge="1" parent="1" target="PQA-iqeKC8U9w4bmJD3V-18">
          <mxGeometry width="50" height="50" relative="1" as="geometry">
            <mxPoint x="500" y="180" as="sourcePoint" />
            <mxPoint x="530" y="170" as="targetPoint" />
          </mxGeometry>
        </mxCell>
        <mxCell id="PQA-iqeKC8U9w4bmJD3V-27" value="" style="endArrow=classic;startArrow=classic;html=1;rounded=0;entryX=0;entryY=0.5;entryDx=0;entryDy=0;" edge="1" parent="1" target="PQA-iqeKC8U9w4bmJD3V-20">
          <mxGeometry width="50" height="50" relative="1" as="geometry">
            <mxPoint x="500" y="200" as="sourcePoint" />
            <mxPoint x="530" y="170" as="targetPoint" />
            <Array as="points">
              <mxPoint x="540" y="200" />
              <mxPoint x="540" y="235" />
            </Array>
          </mxGeometry>
        </mxCell>
        <mxCell id="PQA-iqeKC8U9w4bmJD3V-37" value="ข้อมูลบริการ,คอร์ส,หมวดหมู่" style="text;html=1;align=center;verticalAlign=middle;resizable=0;points=[];autosize=1;strokeColor=none;fillColor=none;" vertex="1" parent="1">
          <mxGeometry x="75" y="160" width="160" height="30" as="geometry" />
        </mxCell>
        <mxCell id="PQA-iqeKC8U9w4bmJD3V-38" value="ข้อมูลบริการ,คอร์ส,หมวดหมู่" style="text;html=1;align=center;verticalAlign=middle;resizable=0;points=[];autosize=1;strokeColor=none;fillColor=none;" vertex="1" parent="1">
          <mxGeometry x="75" y="645" width="160" height="30" as="geometry" />
        </mxCell>
        <mxCell id="PQA-iqeKC8U9w4bmJD3V-39" value="ข้อมูลบริการ,คอร์ส,หมวดหมู่" style="text;html=1;align=center;verticalAlign=middle;resizable=0;points=[];autosize=1;strokeColor=none;fillColor=none;" vertex="1" parent="1">
          <mxGeometry x="75" y="485" width="160" height="30" as="geometry" />
        </mxCell>
        <mxCell id="PQA-iqeKC8U9w4bmJD3V-40" value="ข้อมูลบริการ,คอร์ส,หมวดหมู่" style="text;html=1;align=center;verticalAlign=middle;resizable=0;points=[];autosize=1;strokeColor=none;fillColor=none;" vertex="1" parent="1">
          <mxGeometry x="75" y="325" width="160" height="30" as="geometry" />
        </mxCell>
        <mxCell id="PQA-iqeKC8U9w4bmJD3V-41" value="ข้อมูลบริการ" style="text;html=1;align=center;verticalAlign=middle;resizable=0;points=[];autosize=1;strokeColor=none;fillColor=none;" vertex="1" parent="1">
          <mxGeometry x="585" y="100" width="80" height="30" as="geometry" />
        </mxCell>
        <mxCell id="PQA-iqeKC8U9w4bmJD3V-42" value="ข้อมูลคอร์ส" style="text;html=1;align=center;verticalAlign=middle;resizable=0;points=[];autosize=1;strokeColor=none;fillColor=none;" vertex="1" parent="1">
          <mxGeometry x="585" y="150" width="80" height="30" as="geometry" />
        </mxCell>
        <mxCell id="PQA-iqeKC8U9w4bmJD3V-43" value="ข้อมูลหมวดหมู่" style="text;html=1;align=center;verticalAlign=middle;resizable=0;points=[];autosize=1;strokeColor=none;fillColor=none;" vertex="1" parent="1">
          <mxGeometry x="585" y="210" width="100" height="30" as="geometry" />
        </mxCell>
        <mxCell id="PQA-iqeKC8U9w4bmJD3V-44" value="บริการ" style="shape=partialRectangle;whiteSpace=wrap;html=1;left=0;right=0;fillColor=none;" vertex="1" parent="1">
          <mxGeometry x="779" y="267.5" width="120" height="40" as="geometry" />
        </mxCell>
        <mxCell id="PQA-iqeKC8U9w4bmJD3V-45" value="D1" style="rounded=0;whiteSpace=wrap;html=1;" vertex="1" parent="1">
          <mxGeometry x="739" y="267.5" width="40" height="40" as="geometry" />
        </mxCell>
        <mxCell id="PQA-iqeKC8U9w4bmJD3V-46" value="คอร์ส" style="shape=partialRectangle;whiteSpace=wrap;html=1;left=0;right=0;fillColor=none;" vertex="1" parent="1">
          <mxGeometry x="779" y="322.5" width="120" height="40" as="geometry" />
        </mxCell>
        <mxCell id="PQA-iqeKC8U9w4bmJD3V-47" value="D2" style="rounded=0;whiteSpace=wrap;html=1;" vertex="1" parent="1">
          <mxGeometry x="739" y="322.5" width="40" height="40" as="geometry" />
        </mxCell>
        <mxCell id="PQA-iqeKC8U9w4bmJD3V-48" value="หมวดหมู่" style="shape=partialRectangle;whiteSpace=wrap;html=1;left=0;right=0;fillColor=none;" vertex="1" parent="1">
          <mxGeometry x="779" y="377.5" width="120" height="40" as="geometry" />
        </mxCell>
        <mxCell id="PQA-iqeKC8U9w4bmJD3V-49" value="D3" style="rounded=0;whiteSpace=wrap;html=1;" vertex="1" parent="1">
          <mxGeometry x="739" y="377.5" width="40" height="40" as="geometry" />
        </mxCell>
        <mxCell id="PQA-iqeKC8U9w4bmJD3V-50" value="" style="endArrow=classic;startArrow=classic;html=1;rounded=0;entryX=0;entryY=0.5;entryDx=0;entryDy=0;exitX=1.006;exitY=0.111;exitDx=0;exitDy=0;exitPerimeter=0;" edge="1" parent="1" target="PQA-iqeKC8U9w4bmJD3V-45">
          <mxGeometry width="50" height="50" relative="1" as="geometry">
            <mxPoint x="499" y="322.5" as="sourcePoint" />
            <mxPoint x="529" y="332.5" as="targetPoint" />
            <Array as="points">
              <mxPoint x="539" y="322.5" />
              <mxPoint x="539" y="287.5" />
            </Array>
          </mxGeometry>
        </mxCell>
        <mxCell id="PQA-iqeKC8U9w4bmJD3V-51" value="" style="endArrow=classic;startArrow=classic;html=1;rounded=0;entryX=0;entryY=0.5;entryDx=0;entryDy=0;" edge="1" parent="1" target="PQA-iqeKC8U9w4bmJD3V-47">
          <mxGeometry width="50" height="50" relative="1" as="geometry">
            <mxPoint x="499" y="342.5" as="sourcePoint" />
            <mxPoint x="529" y="332.5" as="targetPoint" />
          </mxGeometry>
        </mxCell>
        <mxCell id="PQA-iqeKC8U9w4bmJD3V-52" value="" style="endArrow=classic;startArrow=classic;html=1;rounded=0;entryX=0;entryY=0.5;entryDx=0;entryDy=0;" edge="1" parent="1" target="PQA-iqeKC8U9w4bmJD3V-49">
          <mxGeometry width="50" height="50" relative="1" as="geometry">
            <mxPoint x="499" y="362.5" as="sourcePoint" />
            <mxPoint x="529" y="332.5" as="targetPoint" />
            <Array as="points">
              <mxPoint x="539" y="362.5" />
              <mxPoint x="539" y="397.5" />
            </Array>
          </mxGeometry>
        </mxCell>
        <mxCell id="PQA-iqeKC8U9w4bmJD3V-53" value="ข้อมูลบริการ" style="text;html=1;align=center;verticalAlign=middle;resizable=0;points=[];autosize=1;strokeColor=none;fillColor=none;" vertex="1" parent="1">
          <mxGeometry x="584" y="262.5" width="80" height="30" as="geometry" />
        </mxCell>
        <mxCell id="PQA-iqeKC8U9w4bmJD3V-54" value="ข้อมูลคอร์ส" style="text;html=1;align=center;verticalAlign=middle;resizable=0;points=[];autosize=1;strokeColor=none;fillColor=none;" vertex="1" parent="1">
          <mxGeometry x="584" y="312.5" width="80" height="30" as="geometry" />
        </mxCell>
        <mxCell id="PQA-iqeKC8U9w4bmJD3V-55" value="ข้อมูลหมวดหมู่" style="text;html=1;align=center;verticalAlign=middle;resizable=0;points=[];autosize=1;strokeColor=none;fillColor=none;" vertex="1" parent="1">
          <mxGeometry x="584" y="372.5" width="100" height="30" as="geometry" />
        </mxCell>
        <mxCell id="PQA-iqeKC8U9w4bmJD3V-56" value="บริการ" style="shape=partialRectangle;whiteSpace=wrap;html=1;left=0;right=0;fillColor=none;" vertex="1" parent="1">
          <mxGeometry x="780" y="427.5" width="120" height="40" as="geometry" />
        </mxCell>
        <mxCell id="PQA-iqeKC8U9w4bmJD3V-57" value="D1" style="rounded=0;whiteSpace=wrap;html=1;" vertex="1" parent="1">
          <mxGeometry x="740" y="427.5" width="40" height="40" as="geometry" />
        </mxCell>
        <mxCell id="PQA-iqeKC8U9w4bmJD3V-58" value="คอร์ส" style="shape=partialRectangle;whiteSpace=wrap;html=1;left=0;right=0;fillColor=none;" vertex="1" parent="1">
          <mxGeometry x="780" y="482.5" width="120" height="40" as="geometry" />
        </mxCell>
        <mxCell id="PQA-iqeKC8U9w4bmJD3V-59" value="D2" style="rounded=0;whiteSpace=wrap;html=1;" vertex="1" parent="1">
          <mxGeometry x="740" y="482.5" width="40" height="40" as="geometry" />
        </mxCell>
        <mxCell id="PQA-iqeKC8U9w4bmJD3V-60" value="หมวดหมู่" style="shape=partialRectangle;whiteSpace=wrap;html=1;left=0;right=0;fillColor=none;" vertex="1" parent="1">
          <mxGeometry x="780" y="537.5" width="120" height="40" as="geometry" />
        </mxCell>
        <mxCell id="PQA-iqeKC8U9w4bmJD3V-61" value="D3" style="rounded=0;whiteSpace=wrap;html=1;" vertex="1" parent="1">
          <mxGeometry x="740" y="537.5" width="40" height="40" as="geometry" />
        </mxCell>
        <mxCell id="PQA-iqeKC8U9w4bmJD3V-62" value="" style="endArrow=classic;startArrow=classic;html=1;rounded=0;entryX=0;entryY=0.5;entryDx=0;entryDy=0;exitX=1.006;exitY=0.111;exitDx=0;exitDy=0;exitPerimeter=0;" edge="1" parent="1" target="PQA-iqeKC8U9w4bmJD3V-57">
          <mxGeometry width="50" height="50" relative="1" as="geometry">
            <mxPoint x="500" y="482.5" as="sourcePoint" />
            <mxPoint x="530" y="492.5" as="targetPoint" />
            <Array as="points">
              <mxPoint x="540" y="482.5" />
              <mxPoint x="540" y="447.5" />
            </Array>
          </mxGeometry>
        </mxCell>
        <mxCell id="PQA-iqeKC8U9w4bmJD3V-63" value="" style="endArrow=classic;startArrow=classic;html=1;rounded=0;entryX=0;entryY=0.5;entryDx=0;entryDy=0;" edge="1" parent="1" target="PQA-iqeKC8U9w4bmJD3V-59">
          <mxGeometry width="50" height="50" relative="1" as="geometry">
            <mxPoint x="500" y="502.5" as="sourcePoint" />
            <mxPoint x="530" y="492.5" as="targetPoint" />
          </mxGeometry>
        </mxCell>
        <mxCell id="PQA-iqeKC8U9w4bmJD3V-64" value="" style="endArrow=classic;startArrow=classic;html=1;rounded=0;entryX=0;entryY=0.5;entryDx=0;entryDy=0;" edge="1" parent="1" target="PQA-iqeKC8U9w4bmJD3V-61">
          <mxGeometry width="50" height="50" relative="1" as="geometry">
            <mxPoint x="500" y="522.5" as="sourcePoint" />
            <mxPoint x="530" y="492.5" as="targetPoint" />
            <Array as="points">
              <mxPoint x="540" y="522.5" />
              <mxPoint x="540" y="557.5" />
            </Array>
          </mxGeometry>
        </mxCell>
        <mxCell id="PQA-iqeKC8U9w4bmJD3V-65" value="ข้อมูลบริการ" style="text;html=1;align=center;verticalAlign=middle;resizable=0;points=[];autosize=1;strokeColor=none;fillColor=none;" vertex="1" parent="1">
          <mxGeometry x="585" y="422.5" width="80" height="30" as="geometry" />
        </mxCell>
        <mxCell id="PQA-iqeKC8U9w4bmJD3V-66" value="ข้อมูลคอร์ส" style="text;html=1;align=center;verticalAlign=middle;resizable=0;points=[];autosize=1;strokeColor=none;fillColor=none;" vertex="1" parent="1">
          <mxGeometry x="585" y="472.5" width="80" height="30" as="geometry" />
        </mxCell>
        <mxCell id="PQA-iqeKC8U9w4bmJD3V-67" value="ข้อมูลหมวดหมู่" style="text;html=1;align=center;verticalAlign=middle;resizable=0;points=[];autosize=1;strokeColor=none;fillColor=none;" vertex="1" parent="1">
          <mxGeometry x="585" y="532.5" width="100" height="30" as="geometry" />
        </mxCell>
        <mxCell id="PQA-iqeKC8U9w4bmJD3V-68" value="บริการ" style="shape=partialRectangle;whiteSpace=wrap;html=1;left=0;right=0;fillColor=none;" vertex="1" parent="1">
          <mxGeometry x="780" y="590" width="120" height="40" as="geometry" />
        </mxCell>
        <mxCell id="PQA-iqeKC8U9w4bmJD3V-69" value="D1" style="rounded=0;whiteSpace=wrap;html=1;" vertex="1" parent="1">
          <mxGeometry x="740" y="590" width="40" height="40" as="geometry" />
        </mxCell>
        <mxCell id="PQA-iqeKC8U9w4bmJD3V-70" value="คอร์ส" style="shape=partialRectangle;whiteSpace=wrap;html=1;left=0;right=0;fillColor=none;" vertex="1" parent="1">
          <mxGeometry x="780" y="645" width="120" height="40" as="geometry" />
        </mxCell>
        <mxCell id="PQA-iqeKC8U9w4bmJD3V-71" value="D2" style="rounded=0;whiteSpace=wrap;html=1;" vertex="1" parent="1">
          <mxGeometry x="740" y="645" width="40" height="40" as="geometry" />
        </mxCell>
        <mxCell id="PQA-iqeKC8U9w4bmJD3V-72" value="หมวดหมู่" style="shape=partialRectangle;whiteSpace=wrap;html=1;left=0;right=0;fillColor=none;" vertex="1" parent="1">
          <mxGeometry x="780" y="700" width="120" height="40" as="geometry" />
        </mxCell>
        <mxCell id="PQA-iqeKC8U9w4bmJD3V-73" value="D3" style="rounded=0;whiteSpace=wrap;html=1;" vertex="1" parent="1">
          <mxGeometry x="740" y="700" width="40" height="40" as="geometry" />
        </mxCell>
        <mxCell id="PQA-iqeKC8U9w4bmJD3V-74" value="" style="endArrow=classic;startArrow=classic;html=1;rounded=0;entryX=0;entryY=0.5;entryDx=0;entryDy=0;exitX=1.006;exitY=0.111;exitDx=0;exitDy=0;exitPerimeter=0;" edge="1" parent="1" target="PQA-iqeKC8U9w4bmJD3V-69">
          <mxGeometry width="50" height="50" relative="1" as="geometry">
            <mxPoint x="500" y="645" as="sourcePoint" />
            <mxPoint x="530" y="655" as="targetPoint" />
            <Array as="points">
              <mxPoint x="540" y="645" />
              <mxPoint x="540" y="610" />
            </Array>
          </mxGeometry>
        </mxCell>
        <mxCell id="PQA-iqeKC8U9w4bmJD3V-75" value="" style="endArrow=classic;startArrow=classic;html=1;rounded=0;entryX=0;entryY=0.5;entryDx=0;entryDy=0;" edge="1" parent="1" target="PQA-iqeKC8U9w4bmJD3V-71">
          <mxGeometry width="50" height="50" relative="1" as="geometry">
            <mxPoint x="500" y="665" as="sourcePoint" />
            <mxPoint x="530" y="655" as="targetPoint" />
          </mxGeometry>
        </mxCell>
        <mxCell id="PQA-iqeKC8U9w4bmJD3V-76" value="" style="endArrow=classic;startArrow=classic;html=1;rounded=0;entryX=0;entryY=0.5;entryDx=0;entryDy=0;" edge="1" parent="1" target="PQA-iqeKC8U9w4bmJD3V-73">
          <mxGeometry width="50" height="50" relative="1" as="geometry">
            <mxPoint x="500" y="685" as="sourcePoint" />
            <mxPoint x="530" y="655" as="targetPoint" />
            <Array as="points">
              <mxPoint x="540" y="685" />
              <mxPoint x="540" y="720" />
            </Array>
          </mxGeometry>
        </mxCell>
        <mxCell id="PQA-iqeKC8U9w4bmJD3V-77" value="ข้อมูลบริการ" style="text;html=1;align=center;verticalAlign=middle;resizable=0;points=[];autosize=1;strokeColor=none;fillColor=none;" vertex="1" parent="1">
          <mxGeometry x="585" y="585" width="80" height="30" as="geometry" />
        </mxCell>
        <mxCell id="PQA-iqeKC8U9w4bmJD3V-78" value="ข้อมูลคอร์ส" style="text;html=1;align=center;verticalAlign=middle;resizable=0;points=[];autosize=1;strokeColor=none;fillColor=none;" vertex="1" parent="1">
          <mxGeometry x="585" y="635" width="80" height="30" as="geometry" />
        </mxCell>
        <mxCell id="PQA-iqeKC8U9w4bmJD3V-79" value="ข้อมูลหมวดหมู่" style="text;html=1;align=center;verticalAlign=middle;resizable=0;points=[];autosize=1;strokeColor=none;fillColor=none;" vertex="1" parent="1">
          <mxGeometry x="585" y="695" width="100" height="30" as="geometry" />
        </mxCell>
      </root>
    </mxGraphModel>
  </diagram>
</mxfile>
